<?xml version="1.0" encoding="UTF-8"?>
<svg xmlns="http://www.w3.org/2000/svg" xmlns:xlink="http://www.w3.org/1999/xlink" width="667.57pt" height="114.59pt" viewBox="0 0 667.57 114.59" version="1.1">
<defs>
<clipPath id="clip1">
  <path d="M 0 0 L 667.570313 0 L 667.570313 114.589844 L 0 114.589844 Z M 0 0 "/>
</clipPath>
</defs>
<g id="surface1">
<g clip-path="url(#clip1)" clip-rule="nonzero">
<path style=" stroke:none;fill-rule:nonzero;fill:rgb(13.299561%,12.199402%,12.199402%);fill-opacity:1;" d="M 665.820313 34.257813 C 665.148438 35.472656 664.199219 36.421875 662.984375 37.097656 C 661.761719 37.777344 660.488281 38.117188 659.164063 38.117188 C 657.835938 38.117188 656.566406 37.777344 655.351563 37.097656 C 654.136719 36.421875 653.1875 35.472656 652.515625 34.257813 C 651.839844 33.039063 651.503906 31.765625 651.503906 30.4375 C 651.503906 29.105469 651.84375 27.824219 652.53125 26.59375 C 653.21875 25.367188 654.171875 24.421875 655.398438 23.757813 C 656.617188 23.09375 657.878906 22.761719 659.164063 22.761719 C 660.460938 22.761719 661.71875 23.09375 662.9375 23.757813 C 664.164063 24.421875 665.121094 25.367188 665.804688 26.59375 C 666.492188 27.824219 666.835938 29.105469 666.835938 30.4375 C 666.835938 31.765625 666.496094 33.039063 665.820313 34.257813 M 666.4375 26.226563 C 665.683594 24.882813 664.636719 23.84375 663.296875 23.125 C 661.953125 22.398438 660.574219 22.039063 659.164063 22.039063 C 657.757813 22.039063 656.382813 22.398438 655.042969 23.125 C 653.699219 23.84375 652.652344 24.882813 651.898438 26.226563 C 651.144531 27.574219 650.769531 28.976563 650.769531 30.4375 C 650.769531 31.894531 651.136719 33.289063 651.882813 34.621094 C 652.625 35.957031 653.660156 36.996094 654.988281 37.734375 C 656.320313 38.472656 657.710938 38.839844 659.164063 38.839844 C 660.617188 38.839844 662.007813 38.472656 663.34375 37.734375 C 664.675781 36.996094 665.714844 35.957031 666.457031 34.621094 C 667.199219 33.289063 667.570313 31.894531 667.570313 30.4375 C 667.570313 28.976563 667.191406 27.574219 666.4375 26.226563 M 657.683594 30.210938 L 657.328125 30.210938 L 657.328125 25.992188 C 657.691406 25.867188 658.023438 25.804688 658.324219 25.804688 C 659.015625 25.804688 659.589844 26.023438 660.03125 26.453125 C 660.480469 26.886719 660.703125 27.421875 660.703125 28.058594 C 660.703125 28.671875 660.460938 29.1875 659.980469 29.59375 C 659.496094 30.003906 658.734375 30.210938 657.683594 30.210938 M 662.453125 34.09375 L 659.980469 30.5625 C 660.921875 30.316406 661.589844 29.964844 662 29.511719 C 662.40625 29.058594 662.605469 28.527344 662.605469 27.929688 C 662.605469 27.191406 662.308594 26.566406 661.710938 26.046875 C 661.109375 25.53125 660.238281 25.269531 659.09375 25.269531 L 654.519531 25.269531 L 654.519531 25.699219 C 654.878906 25.699219 655.125 25.746094 655.269531 25.84375 C 655.421875 25.945313 655.519531 26.085938 655.574219 26.265625 C 655.601563 26.367188 655.609375 26.710938 655.609375 27.296875 L 655.609375 33.5 C 655.609375 34.078125 655.59375 34.414063 655.5625 34.519531 C 655.492188 34.726563 655.378906 34.878906 655.214844 34.980469 C 655.050781 35.082031 654.773438 35.132813 654.382813 35.132813 L 654.382813 35.527344 L 658.726563 35.527344 L 658.726563 35.132813 C 658.195313 35.132813 657.84375 35.074219 657.667969 34.957031 C 657.488281 34.839844 657.375 34.648438 657.328125 34.390625 L 657.328125 30.730469 L 658.226563 30.730469 L 661.710938 35.527344 L 663.886719 35.527344 L 663.886719 35.132813 C 663.617188 35.113281 663.410156 35.050781 663.261719 34.957031 C 663.023438 34.800781 662.753906 34.511719 662.453125 34.09375 M 61.394531 23.96875 C 58.46875 30.589844 57.007813 38.226563 57.007813 46.886719 L 57.453125 75.789063 C 57.453125 81.304688 56.625 85.855469 54.972656 89.445313 C 53.320313 93.027344 51.050781 95.945313 48.167969 98.195313 C 46.09375 99.808594 42.699219 101.589844 37.992188 103.542969 C 42.015625 100.359375 44.640625 97.367188 45.867188 94.566406 C 47.605469 90.707031 48.472656 85.316406 48.472656 78.398438 L 48.089844 50.195313 C 48.089844 41.792969 49.042969 35.164063 50.953125 30.300781 C 52.859375 25.441406 55.703125 21.167969 59.476563 17.472656 C 62.316406 14.757813 66.75 11.9375 72.769531 9.007813 C 67.175781 14.398438 63.382813 19.382813 61.394531 23.96875 M 84.140625 2.101563 L 81.882813 0 C 78.78125 2.335938 75.84375 3.992188 73.0625 4.96875 C 70.28125 5.945313 66.917969 6.433594 62.96875 6.433594 C 58.765625 6.433594 52.972656 5.585938 45.589844 3.886719 C 36.378906 1.804688 29.839844 0.765625 25.980469 0.765625 C 19.824219 0.765625 14.625 2.695313 10.378906 6.5625 C 6.132813 10.425781 4.011719 14.671875 4.011719 19.300781 C 4.011719 22.484375 4.871094 25.042969 6.59375 26.976563 C 8.3125 28.90625 10.296875 29.875 12.546875 29.875 C 14.289063 29.875 15.722656 29.300781 16.847656 28.152344 C 17.972656 27.007813 18.535156 25.585938 18.535156 23.886719 C 18.535156 22.359375 18.023438 21.074219 17.007813 20.03125 C 15.988281 18.992188 14.757813 18.472656 13.3125 18.472656 C 12.632813 18.472656 11.855469 18.664063 10.988281 19.046875 C 10.117188 19.429688 9.46875 19.617188 9.042969 19.617188 C 8.578125 19.617188 8.183594 19.449219 7.867188 19.109375 C 7.546875 18.769531 7.386719 18.324219 7.386719 17.773438 C 7.386719 15.988281 8.425781 14.234375 10.507813 12.515625 C 12.589844 10.796875 15.433594 9.9375 19.042969 9.9375 C 21.804688 9.9375 25.753906 10.859375 30.894531 12.707031 C 36.03125 14.554688 40.699219 15.476563 44.90625 15.476563 C 48.980469 15.476563 54.054688 14.523438 60.128906 12.613281 C 53.460938 16.902344 48.640625 20.585938 45.667969 23.664063 C 42.695313 26.742188 40.65625 29.714844 39.554688 32.582031 C 39.285156 33.28125 39.042969 34.046875 38.828125 34.867188 C 38.820313 34.910156 38.804688 34.96875 38.785156 35.050781 C 38.765625 35.128906 38.753906 35.21875 38.734375 35.296875 C 38.257813 37.707031 36.691406 49.398438 41.148438 84.398438 C 41.15625 84.464844 41.160156 84.53125 41.171875 84.601563 C 41.246094 85.195313 41.320313 85.773438 41.398438 86.378906 L 41.328125 86.367188 C 41.367188 86.898438 41.464844 87.429688 41.464844 87.964844 C 41.464844 91.402344 40.4375 94.175781 38.375 96.277344 C 36.316406 98.378906 33.632813 99.429688 30.320313 99.429688 C 28.621094 99.429688 26.007813 98.855469 22.484375 97.710938 C 20.019531 96.902344 17.792969 96.5 15.796875 96.5 C 11.039063 96.5 7.21875 98.066406 4.332031 101.203125 C 2.546875 103.191406 1.105469 106.285156 0 110.480469 L 2.578125 111.59375 C 3.300781 109.8125 4.066406 108.644531 4.871094 108.09375 C 6.0625 107.285156 7.585938 106.882813 9.457031 106.882813 C 11.664063 106.882813 14.53125 107.582031 18.054688 108.984375 C 20.644531 109.960938 22.523438 110.585938 23.691406 110.863281 C 24.859375 111.136719 26.207031 111.277344 27.734375 111.277344 C 33.253906 111.277344 39.644531 108.878906 46.90625 104.078125 C 55.683594 98.304688 62.003906 91.59375 65.863281 83.949219 C 68.792969 78.132813 70.257813 69.34375 70.257813 57.582031 C 70.257813 53.761719 70.214844 50.066406 70.128906 46.5 C 69.960938 39.746094 69.871094 35.054688 69.871094 32.421875 C 69.871094 27.15625 70.882813 22.285156 72.898438 17.804688 C 74.914063 13.324219 78.664063 8.089844 84.140625 2.101563 M 628.289063 36.371094 L 629.179688 35.925781 L 645.066406 53.53125 L 628.289063 65.292969 Z M 656.824219 49.554688 L 638.863281 28.601563 C 631.8125 32.210938 627.335938 34.460938 625.421875 35.351563 C 622.789063 36.539063 619.476563 37.859375 615.488281 39.300781 L 615.488281 75.734375 C 615.488281 79.894531 615.242188 82.601563 614.757813 83.855469 C 614.265625 85.109375 613.300781 86.160156 611.855469 87.007813 L 611.855469 88.601563 C 616.875 89.664063 620.742188 90.683594 623.46875 91.65625 C 626.1875 92.636719 629.652344 94.25 633.863281 96.5 L 654.46875 82.105469 L 653.066406 80.191406 L 643.066406 87.007813 L 628.289063 81.148438 L 628.289063 69.554688 Z M 595.515625 86.5625 L 588.253906 81.339844 L 588.253906 44.269531 L 594.566406 38.527344 L 602.617188 48.726563 L 612.265625 40.160156 L 602.617188 28.601563 L 588.253906 41.085938 C 588.253906 38.835938 587.828125 37.070313 586.972656 35.796875 C 585.65625 33.757813 583.183594 31.359375 579.558594 28.601563 L 566.277344 40.128906 L 567.839844 41.976563 C 569.503906 40.277344 570.8125 39.429688 571.765625 39.429688 C 572.640625 39.429688 573.441406 39.96875 574.167969 41.054688 C 574.894531 42.136719 575.261719 44.3125 575.261719 47.582031 L 575.261719 73.570313 C 575.261719 77.347656 574.972656 79.90625 574.398438 81.242188 C 573.824219 82.582031 572.605469 83.910156 570.738281 85.226563 L 570.738281 86.628906 C 573.535156 87.390625 576.109375 88.453125 578.464844 89.8125 C 580.816406 91.171875 583.726563 93.398438 587.203125 96.5 L 603.539063 83.441406 L 602.074219 81.402344 Z M 562.570313 86.179688 C 561.746094 86.179688 560.988281 85.609375 560.292969 84.460938 C 559.210938 82.804688 558.664063 80.046875 558.664063 76.179688 L 558.664063 42.738281 L 563.824219 38.058594 L 552.457031 28.601563 L 541.277344 38.058594 L 545.800781 42.738281 L 545.800781 77.515625 L 534.140625 86.109375 C 531.675781 84.324219 530.128906 82.847656 529.492188 81.679688 C 528.855469 80.507813 528.535156 78.667969 528.535156 76.160156 L 528.535156 42.292969 L 533.316406 38.058594 L 521.753906 28.601563 L 506.691406 40.957031 L 508.25 42.933594 C 510.03125 41.488281 511.367188 40.765625 512.257813 40.765625 C 513.445313 40.765625 514.386719 41.359375 515.078125 42.550781 C 515.472656 43.230469 515.671875 44.675781 515.671875 46.878906 L 515.671875 78.347656 C 515.671875 82.335938 516.304688 85.554688 517.578125 87.996094 C 518.84375 90.4375 521.53125 93.273438 525.640625 96.5 C 532.488281 90.460938 539.210938 85.320313 545.800781 81.085938 C 545.882813 85.203125 546.441406 88.207031 547.480469 90.097656 C 548.515625 91.988281 550.730469 94.121094 554.109375 96.5 L 567.644531 86.117188 L 566.085938 84.144531 C 564.347656 85.5 563.179688 86.179688 562.570313 86.179688 M 491.710938 13.632813 L 489.859375 13.632813 L 472.089844 35.550781 L 472.089844 38.347656 L 478.078125 38.347656 L 478.078125 74.894531 C 478.078125 77.867188 477.71875 80.144531 476.996094 81.71875 C 476.441406 82.949219 475.316406 84.140625 473.617188 85.289063 L 473.617188 86.5625 C 479.652344 88.304688 485.058594 91.617188 489.828125 96.5 L 503.875 85.289063 L 502.28125 83.378906 L 498.203125 86.5625 L 491.070313 81.277344 L 491.070313 38.347656 L 503.875 38.347656 L 503.875 31.210938 L 491.070313 31.210938 Z M 466.574219 86.179688 C 465.753906 86.179688 464.992188 85.609375 464.300781 84.460938 C 463.214844 82.804688 462.671875 80.046875 462.671875 76.179688 L 462.671875 42.738281 L 467.828125 38.058594 L 456.460938 28.601563 L 445.28125 38.058594 L 449.804688 42.738281 L 449.804688 77.515625 L 438.144531 86.109375 C 435.679688 84.324219 434.132813 82.847656 433.496094 81.679688 C 432.859375 80.507813 432.542969 78.667969 432.542969 76.160156 L 432.542969 42.292969 L 437.320313 38.058594 L 425.757813 28.601563 L 410.695313 40.957031 L 412.257813 42.933594 C 414.035156 41.488281 415.371094 40.765625 416.261719 40.765625 C 417.449219 40.765625 418.390625 41.359375 419.085938 42.550781 C 419.476563 43.230469 419.675781 44.675781 419.675781 46.878906 L 419.675781 78.347656 C 419.675781 82.335938 420.308594 85.554688 421.582031 87.996094 C 422.851563 90.4375 425.539063 93.273438 429.644531 96.5 C 436.492188 90.460938 443.214844 85.320313 449.804688 81.085938 C 449.890625 85.203125 450.449219 88.207031 451.484375 90.097656 C 452.523438 91.988281 454.734375 94.121094 458.117188 96.5 L 471.652344 86.117188 L 470.09375 84.144531 C 468.355469 85.5 467.183594 86.179688 466.574219 86.179688 M 397.304688 86.179688 L 380.679688 79.363281 L 380.679688 39.488281 C 382.847656 39.878906 384.695313 40.351563 386.222656 40.90625 C 388.390625 41.679688 392.082031 43.289063 397.304688 45.734375 Z M 367.816406 39.554688 L 367.816406 74.523438 C 367.816406 77.964844 367.515625 80.40625 366.925781 81.847656 C 366.5 82.953125 365.480469 84.183594 363.867188 85.542969 L 364.503906 86.816406 C 368.371094 86.988281 371.835938 87.625 374.898438 88.730469 C 378.9375 90.171875 384.039063 92.761719 390.203125 96.5 C 392.203125 94.675781 394.289063 93.144531 396.457031 91.914063 C 399.304688 90.257813 403.921875 88.132813 410.300781 85.542969 L 410.300781 37.898438 C 401.328125 35.691406 393.824219 32.59375 387.785156 28.601563 C 382.253906 33.3125 375.597656 36.964844 367.816406 39.554688 M 309.226563 80.863281 C 305.335938 78.851563 301.683594 75.957031 298.28125 72.179688 C 303.859375 67.546875 308.203125 63.425781 311.3125 59.8125 C 312.847656 58.027344 313.828125 56.347656 314.253906 54.773438 C 314.636719 53.582031 314.828125 51.183594 314.828125 47.566406 L 314.828125 18.492188 L 322.28125 12.035156 L 322.917969 84.90625 C 317.683594 84.226563 313.121094 82.882813 309.226563 80.863281 M 344.9375 82.152344 C 339.917969 84.242188 334.359375 85.289063 328.261719 85.289063 L 325.847656 85.226563 L 325.210938 12.484375 C 334.082031 16.902344 342.042969 19.492188 349.097656 20.257813 L 359.605469 10.222656 L 358.554688 7.898438 L 357.09375 7.898438 C 352.179688 7.898438 347.898438 7.527344 344.253906 6.785156 C 340.609375 6.042969 335.609375 4.417969 329.257813 1.910156 L 301.960938 24.652344 L 301.960938 53.1875 C 301.960938 59.554688 301.707031 63.453125 301.199219 64.875 C 300.6875 66.296875 299.160156 68.050781 296.613281 70.128906 C 290.707031 62.527344 287.757813 54.25 287.757813 45.289063 C 287.757813 37.898438 289.753906 31.0625 293.746094 24.777344 C 296.84375 19.894531 301.558594 15.308594 307.886719 11.019531 L 306.324219 9.234375 C 296.652344 15.054688 289.65625 21.042969 285.328125 27.199219 C 279.816406 35.054688 277.058594 43.589844 277.058594 52.804688 C 277.058594 60.277344 279.011719 67.539063 282.917969 74.589844 C 286.824219 81.636719 292.226563 87.050781 299.128906 90.828125 C 306.027344 94.609375 313.386719 96.5 321.199219 96.5 C 326.464844 96.5 331.773438 95.597656 337.121094 93.789063 C 342.472656 91.980469 347.046875 89.570313 350.847656 86.550781 C 354.648438 83.53125 358.523438 79.300781 362.472656 73.855469 L 360.53125 71.976563 C 355.152344 76.671875 349.953125 80.0625 344.9375 82.152344 M 238 69.523438 C 235.484375 74.214844 231.242188 78.730469 225.277344 83.058594 L 225.277344 46.886719 L 234.777344 39.292969 C 239.445313 44.769531 241.777344 50.378906 241.777344 56.109375 C 241.777344 60.359375 240.519531 64.832031 238 69.523438 M 225.277344 43.949219 L 225.277344 42.550781 C 225.277344 39.363281 224.738281 36.859375 223.65625 35.03125 C 222.570313 33.207031 220.203125 31.0625 216.554688 28.601563 L 203.175781 39.746094 L 204.769531 41.847656 C 205.148438 41.511719 205.421875 41.253906 205.589844 41.085938 C 206.726563 39.980469 207.652344 39.429688 208.367188 39.429688 C 209.253906 39.429688 210.074219 40.023438 210.832031 41.210938 C 211.800781 42.738281 212.285156 45.628906 212.285156 49.875 L 212.285156 80.320313 C 212.285156 82.828125 212.113281 84.769531 211.773438 86.148438 C 211.429688 87.527344 210.789063 89.027344 209.847656 90.640625 C 209.507813 91.234375 208.628906 92.253906 207.21875 93.695313 C 204.269531 96.667969 202.796875 99.726563 202.796875 102.867188 C 202.796875 106.054688 204.109375 108.800781 206.742188 111.117188 C 209.378906 113.429688 213.132813 114.589844 218.019531 114.589844 C 222.6875 114.589844 226.554688 113.527344 229.609375 111.402344 C 231.605469 110.085938 232.605469 108.75 232.605469 107.390625 C 232.605469 106.628906 232.347656 106.011719 231.839844 105.542969 C 231.328125 105.074219 230.652344 104.84375 229.800781 104.84375 C 229.039063 104.84375 228.378906 105.054688 227.828125 105.480469 C 227.273438 105.902344 226.617188 106.808594 225.851563 108.1875 C 225.089844 109.566406 224.300781 110.46875 223.496094 110.894531 C 221.839844 111.785156 219.738281 112.230469 217.191406 112.230469 C 213.664063 112.230469 210.828125 111.308594 208.6875 109.460938 C 206.542969 107.613281 205.46875 105.609375 205.46875 103.441406 C 205.46875 102.167969 205.765625 101.023438 206.363281 100.003906 C 207.167969 98.601563 208.527344 97.15625 210.4375 95.671875 C 211.332031 94.949219 214.027344 93.230469 218.527344 90.511719 C 228.847656 84.355469 236.320313 79.375 240.949219 75.574219 C 245.574219 71.777344 248.976563 67.761719 251.140625 63.539063 C 253.304688 59.3125 254.390625 55.074219 254.390625 50.832031 C 254.390625 42.933594 251.085938 35.519531 244.484375 28.601563 Z M 193.40625 87.003906 L 180.871094 81.402344 L 180.871094 40.765625 L 193.324219 47.964844 L 200.105469 38.058594 L 183.578125 28.601563 C 178.40625 33.609375 173.171875 37.324219 167.875 39.746094 L 167.875 75.988281 C 167.875 79.515625 167.535156 82.105469 166.855469 83.761719 C 166.390625 84.949219 165.414063 86.054688 163.925781 87.070313 L 163.925781 88.601563 C 168.125 89.40625 171.664063 90.351563 174.546875 91.433594 C 177.429688 92.519531 180.90625 94.207031 184.980469 96.5 L 200.742188 84.90625 L 200.070313 82.179688 Z M 161.621094 6.816406 L 153.53125 6.816406 L 150.28125 20.574219 L 152.832031 20.574219 Z M 162.417969 83.441406 C 160.730469 84.84375 159.617188 85.695313 159.082031 85.988281 C 158.695313 86.203125 158.273438 86.308594 157.816406 86.308594 C 157.164063 86.308594 156.53125 85.757813 155.917969 84.652344 C 155.304688 83.550781 154.996094 81.171875 154.996094 77.519531 L 154.996094 42.867188 L 160.027344 37.996094 L 148.722656 28.601563 L 137.480469 37.996094 L 142.257813 42.867188 L 142.257813 78.410156 C 142.257813 83.761719 142.746094 87.507813 143.730469 89.652344 C 144.710938 91.796875 146.90625 94.078125 150.316406 96.5 L 163.976563 85.414063 Z M 132.054688 86.179688 C 131.230469 86.179688 130.46875 85.609375 129.773438 84.460938 C 128.691406 82.804688 128.148438 80.046875 128.148438 76.179688 L 128.148438 42.738281 L 133.304688 38.058594 L 121.9375 28.601563 L 110.757813 38.058594 L 115.28125 42.738281 L 115.28125 77.515625 L 103.621094 86.109375 C 101.15625 84.324219 99.609375 82.847656 98.972656 81.679688 C 98.335938 80.507813 98.019531 78.667969 98.019531 76.160156 L 98.019531 42.292969 L 102.796875 38.058594 L 91.234375 28.601563 L 76.171875 40.957031 L 77.730469 42.933594 C 79.511719 41.488281 80.847656 40.765625 81.738281 40.765625 C 82.925781 40.765625 83.867188 41.359375 84.558594 42.550781 C 84.953125 43.230469 85.152344 44.675781 85.152344 46.878906 L 85.152344 78.347656 C 85.152344 82.335938 85.785156 85.554688 87.058594 87.996094 C 88.328125 90.4375 91.015625 93.273438 95.121094 96.5 C 101.96875 90.460938 108.691406 85.320313 115.28125 81.085938 C 115.367188 85.203125 115.925781 88.207031 116.964844 90.097656 C 118 91.988281 120.210938 94.121094 123.59375 96.5 L 137.128906 86.117188 L 135.570313 84.144531 C 133.832031 85.5 132.660156 86.179688 132.054688 86.179688 "/>
</g>
</g>
</svg>
